<svg xmlns="http://www.w3.org/2000/svg" viewBox="0 0 24 24" width="24" height="24">
  <path d="M12,22.4L10.4,21C5.9,16.7,2,12.9,2,8.5C2,5.4,4.4,3,7.5,3C9.3,3,10.9,3.8,12,5C13.1,3.8,14.7,3,16.5,3C19.6,3,22,5.4,22,8.5C22,12.9,18.1,16.7,13.6,21L12,22.4z" stroke="#f11" stroke-width="2" fill="none" />
  <path d="M12,22.4L10.4,21C5.9,16.7,2,12.9,2,8.5C2,5.4,4.4,3,7.5,3C9.3,3,10.9,3.8,12,5C13.1,3.8,14.7,3,16.5,3C19.6,3,22,5.4,22,8.5C22,12.9,18.1,16.7,13.6,21L12,22.4z" fill="#f11" style="fill-opacity:0" id="heart" onclick="()=> {if(this.style.fillOpacity=='1') this.style.fillOpacity='0'; else this.style.fillOpacity='1';}" />
</svg>